# xmcd
#
# Track frame offsets:
#	150
#	16774
#	31312
#	48371
#	64713
#	76798
#	91057
#	102746
#	118338
#	132864
#
# Disc length: 2004 seconds
#
# Revision: 1
# Processed by: cddbd v1.5.2PL0 Copyright (c) Steve Scherf et al.
# Submitted via: audiograbber 1.83.01
#
DISCID=7807d20a
DTITLE=MMr. John Kampen and Friends - 1000 Jahre und 1 Tag
DYEAR=2013
DGENRE=Country
TTITLE0=1000 Jahre und 1 Tag
TTITLE1=Zusammensteh´n
TTITLE2=Wie die Sonne, der Mond und der Wind
TTITLE3=Sierra Madre Del Sur
TTITLE4=Wer Liebe sucht
TTITLE5=Hätt´ich dich doch hier bei mir
TTITLE6=Johnny´s Honky Tonk Saloon
TTITLE7=Mein Freund Winnetou
TTITLE8=Wenn Träume Flügel kriegen
TTITLE9=Zusammensteh´n 2012
EXTD=
EXTT0=
EXTT1=
EXTT2=
EXTT3=
EXTT4=
EXTT5=
EXTT6=
EXTT7=
EXTT8=
EXTT9=
PLAYORDER=
